<svg width="257" height="50" viewBox="0 0 257 50" fill="none" xmlns="http://www.w3.org/2000/svg">
<path d="M63.0235 40.576C60.5995 40.576 58.4155 40 56.4715 38.848C54.5275 37.672 53.0035 36.076 51.8995 34.06C50.7955 32.044 50.2435 29.824 50.2435 27.4C50.2435 25.072 50.7955 22.936 51.8995 20.992C53.0275 19.048 54.5875 17.512 56.5795 16.384C58.5715 15.256 60.8395 14.692 63.3835 14.692C64.7755 14.692 66.1195 14.848 67.4155 15.16C68.7355 15.472 69.9235 15.916 70.9795 16.492L68.6035 22.072C66.9715 21.4 65.4475 21.064 64.0315 21.064C62.1835 21.064 60.7555 21.664 59.7475 22.864C58.7395 24.04 58.2355 25.588 58.2355 27.508C58.2355 28.756 58.4635 29.884 58.9195 30.892C59.3755 31.876 60.0115 32.656 60.8275 33.232C61.6675 33.808 62.6155 34.096 63.6715 34.096C64.2475 34.096 64.7275 34.048 65.1115 33.952V28.156L71.3395 27.436V38.704C68.6275 39.952 65.8555 40.576 63.0235 40.576ZM79.1544 33.124L72.0264 15.232H79.5504L83.0424 26.356L86.4624 15.232H94.3824L86.8944 33.124V40H79.1544V33.124ZM96.1093 15.232H103.597L109.789 27.256L115.837 15.232H123.325V40H115.837V26.788L111.265 35.428H108.205L103.597 26.788V40H96.1093V15.232ZM127.623 15.232H135.111L141.303 27.256L147.351 15.232H154.839V40H147.351V26.788L142.779 35.428H139.719L135.111 26.788V40H127.623V15.232ZM159.137 15.232H167.453V40H159.137V15.232ZM171.737 15.232H178.973L188.837 28.588V15.232H195.281V40H188.081L178.145 27.112V40H171.737V15.232ZM198.839 23.836C200.063 23.836 200.867 23.812 201.251 23.764C201.635 23.716 201.887 23.572 202.007 23.332C202.127 23.092 202.187 22.636 202.187 21.964H198.839V15.232H206.219V18.904C206.219 21.664 206.051 23.656 205.715 24.88C205.403 26.08 204.743 26.908 203.735 27.364C202.751 27.82 201.119 28.048 198.839 28.048V23.836Z" fill="#FCA311"/>
<rect x="28" y="25" width="14" height="4" fill="#B9B9B9"/>
<rect x="18" y="40" width="26" height="8" rx="2" transform="rotate(-90 18 40)" fill="#B9B9B9"/>
<rect x="8" y="40" width="26" height="8" rx="2" transform="rotate(-90 8 40)" fill="#B9B9B9"/>
<rect x="2" y="32" width="9" height="4" rx="2" transform="rotate(-90 2 32)" fill="#B9B9B9"/>
<rect y="29" width="3" height="5" rx="1.5" transform="rotate(-90 0 29)" fill="#B9B9B9"/>
<rect x="229" y="29" width="14" height="4" transform="rotate(-180 229 29)" fill="#B9B9B9"/>
<rect x="239" y="14" width="26" height="8" rx="2" transform="rotate(90 239 14)" fill="#B9B9B9"/>
<rect x="249" y="14" width="26" height="8" rx="2" transform="rotate(90 249 14)" fill="#B9B9B9"/>
<rect x="255" y="22" width="9" height="4" rx="2" transform="rotate(90 255 22)" fill="#B9B9B9"/>
<rect x="257" y="25" width="3" height="5" rx="1.5" transform="rotate(90 257 25)" fill="#B9B9B9"/>
</svg>
